<svg xmlns="http://www.w3.org/2000/svg" width="100" height="100" viewBox="0 0 100 100">
  <path d="M68.4 61.4c-4.8-1.4-10.2-2.2-15.8-2.2-5.6 0-11 0.8-15.8 2.2l-3.6-8.6c5.6-2 11.8-3.2 18-3.2s12.4 1.2 18 3.2l-3.6 8.6z"/>
  <path d="M50 0C22.4 0 0 22.4 0 50s22.4 50 50 50 50-22.4 50-50S77.6 0 50 0zM78.4 57.2c-2.8-1.2-6-1.8-9.4-1.8-3.4 0-6.6 0.6-9.4 1.8l-3.6-8.6c3-1.4 6.4-2.4 10-2.4s7 1 10 2.4l-3.6 8.6zM50 91.2c-21.2 0-38.4-17.2-38.4-38.4s17.2-38.4 38.4-38.4 38.4 17.2 38.4 38.4-17.2 38.4-38.4 38.4z"/>
</svg>
