<?xml version="1.0" encoding="UTF-8" standalone="no"?>
<svg width="31px" height="31px" viewBox="0 0 31 31" version="1.1" xmlns="http://www.w3.org/2000/svg" xmlns:xlink="http://www.w3.org/1999/xlink" xmlns:sketch="http://www.bohemiancoding.com/sketch/ns">
    <!-- Generator: Sketch 3.4.4 (17249) - http://www.bohemiancoding.com/sketch -->
    <title>Check</title>
    <desc>Created with Sketch.</desc>
    <defs></defs>
    <g id="Page-1" stroke="none" stroke-width="1" fill="none" fill-rule="evenodd" sketch:type="MSPage">
        <g id="Check" sketch:type="MSLayerGroup" transform="translate(1.000000, 1.000000)" stroke="#32BBDB">
            <path d="M14.5,29 C22.5081289,29 29,22.5081289 29,14.5 C29,6.49187113 22.5081289,0 14.5,0 C6.49187113,0 0,6.49187113 0,14.5 C0,22.5081289 6.49187113,29 14.5,29 Z" id="Oval-18" sketch:type="MSShapeGroup"></path>
            <path d="M11.5066855,20.7734667 L11.8524272,21.1192085 L12.5439107,20.427725 L12.1981689,20.0819833 L7.65438419,15.5381987 L7.30864247,15.1924569 L6.61715902,15.8839404 L6.96290074,16.2296821 L11.5066855,20.7734667 Z" id="Line" stroke-linecap="square" sketch:type="MSShapeGroup"></path>
            <path d="M17.1074685,16.0469246 L16.7617268,16.3926663 L16.0702433,15.7011829 L16.4159851,15.3554411 L20.9597698,10.8116565 L21.3055115,10.4659148 L21.996995,11.1573982 L21.6512532,11.5031399 L17.1074685,16.0469246 Z" id="Line" stroke-linecap="square" sketch:type="MSShapeGroup"></path>
            <path d="M12.3809263,20.7734667 L12.0351846,21.1192085 L11.3437012,20.427725 L11.6894429,20.0819833 L16.2332276,15.5381987 L16.5789694,15.1924569 L17.2704528,15.8839404 L16.9247111,16.2296821 L12.3809263,20.7734667 Z" id="Line" stroke-linecap="square" sketch:type="MSShapeGroup"></path>
        </g>
    </g>
</svg>