<?xml version="1.0" encoding="UTF-8"?>
<svg width="1044px" height="1019px" viewBox="0 0 1044 1019" version="1.1" xmlns="http://www.w3.org/2000/svg" xmlns:xlink="http://www.w3.org/1999/xlink">
    <!-- Generator: Sketch 41.1 (35376) - http://www.bohemiancoding.com/sketch -->
    <title>Untitled</title>
    <desc>Created with Sketch.</desc>
    <defs></defs>
    <g id="Page-1" stroke="none" stroke-width="1" fill="none" fill-rule="evenodd" fill-opacity="0">
        <path d="M522,10 C239.25,10 10,239.25 10,522 C10,748.25 156.688,940.125 360.156,1007.812 C385.75,1012.5 395.094,996.687 395.094,983.187 C395.094,970.999 394.625,930.625 394.375,887.875 C252,918.812 221.906,827.5 221.906,827.5 C198.594,768.375 165.062,752.625 165.062,752.625 C118.531,720.875 168.592,721.5 168.592,721.5 C219.998,725.062 247.062,774.25 247.062,774.25 C292.75,852.5 366.937,829.875 396.062,816.75 C400.716,783.75 413.966,761.125 428.562,748.375 C314.906,735.438 195.344,691.5 195.344,495.312 C195.344,439.374 215.313,393.75 248,357.906 C242.781,344.906 225.156,292.812 253.062,222.344 C253.062,222.344 296,208.594 393.874,274.844 C434.686,263.438 478.468,257.813 521.999,257.625 C565.499,257.813 609.311,263.5 650.187,274.906 C747.875,208.594 790.875,222.406 790.875,222.406 C818.875,292.937 801.25,344.968 796,357.906 C828.812,393.75 848.625,439.375 848.625,495.312 C848.625,692 728.875,735.312 614.813,748 C633.251,763.875 649.563,795 649.563,842.75 C649.563,911.188 648.875,966.375 648.875,983.25 C648.875,996.875 658.187,1012.812 684.125,1007.812 C887.438,940 1034,748.125 1034,522 C1034,239.25 804.75,10 522,10 Z" id="Shape" stroke="#2BFF00" stroke-width="19" fill="#E7DCDC"></path>
    </g>
</svg>