<?xml version="1.0" encoding="UTF-8"?>
<svg width="338px" height="338px" viewBox="0 0 338 338" version="1.1" xmlns="http://www.w3.org/2000/svg" xmlns:xlink="http://www.w3.org/1999/xlink">
    <!-- Generator: Sketch 41.1 (35376) - http://www.bohemiancoding.com/sketch -->
    <title>Head</title>
    <desc>Created with Sketch.</desc>
    <defs>
        <linearGradient x1="68.0415452%" y1="3.92100269%" x2="43.4091832%" y2="79.6053348%" id="linearGradient-1">
            <stop stop-color="#FEFBFB" offset="0%"></stop>
            <stop stop-color="#D8D8D8" offset="100%"></stop>
        </linearGradient>
        <linearGradient x1="57.5280365%" y1="44.57674%" x2="50%" y2="100%" id="linearGradient-2">
            <stop stop-color="#FDFDFD" offset="0%"></stop>
            <stop stop-color="#D8D8D8" offset="100%"></stop>
        </linearGradient>
        <linearGradient x1="40.7373127%" y1="6.39049759%" x2="44.2051175%" y2="69.7252018%" id="linearGradient-3">
            <stop stop-color="#FFFFFF" offset="0%"></stop>
            <stop stop-color="#D8D8D8" offset="100%"></stop>
        </linearGradient>
        <path d="M64.4334141,241.689697 C64.4334141,241.689697 112.576267,271.183487 152.393781,283.017318 C192.339936,294.889382 223.96886,289.099436 228.762623,287.74373 C244.687946,283.225386 263.465346,267.879081 278.715992,253.267122 C286.586189,245.64687 293.519737,238.226339 298.693016,232.645465 C301.243842,229.882501 304.910186,219.42781 304.910186,219.42781 C304.910186,219.42781 306.465753,206.487485 303.75694,202.489629 C293.578978,187.241991 279.894695,166.354873 268.671125,148.370558 C266.641142,145.117774 267.212051,143.325774 263.769767,137.875374 C260.327482,132.424974 267.780785,126.7483 265.788633,123.527142 C262.606017,118.381095 261.906347,106.711116 261.906347,106.711116 C261.906347,106.711116 255.839926,97.6391311 253.424567,93.0653928 C251.009208,88.4916546 245.276635,86.9972884 242.721529,83.5869226 C240.729119,80.9276029 233.970975,79.4585523 231.911901,77.3252332 C229.852826,75.1919142 220.75189,75.2318833 219.609152,73.5834555 C215.443542,67.5744585 209.965356,61.9949433 200.151095,49.0882046 C194.878007,42.0680964 176.086963,34.9170052 176.086963,34.9170052 C176.086963,34.9170052 163.223363,33.0138793 156.257864,34.9170052 C145.910027,37.7376124 123.944055,49.0882046 123.944055,49.0882046 C123.944055,49.0882046 50.0038985,85.7017482 15.0690698,160.691189 C3.57630646,184.385409 18.596067,211.383582 64.4334141,241.689697 Z" id="path-4"></path>
        <filter x="-50%" y="-50%" width="200%" height="200%" filterUnits="objectBoundingBox" id="filter-5">
            <feMorphology radius="3" operator="dilate" in="SourceAlpha" result="shadowSpreadOuter1"></feMorphology>
            <feOffset dx="0" dy="2" in="shadowSpreadOuter1" result="shadowOffsetOuter1"></feOffset>
            <feGaussianBlur stdDeviation="2" in="shadowOffsetOuter1" result="shadowBlurOuter1"></feGaussianBlur>
            <feComposite in="shadowBlurOuter1" in2="SourceAlpha" operator="out" result="shadowBlurOuter1"></feComposite>
            <feColorMatrix values="0 0 0 0 0   0 0 0 0 0   0 0 0 0 0  0 0 0 0.5 0" type="matrix" in="shadowBlurOuter1"></feColorMatrix>
        </filter>
    </defs>
    <g id="Icon" stroke="none" stroke-width="1" fill="none" fill-rule="evenodd">
        <g id="Head" transform="translate(168.889682, 168.889682) rotate(13.000000) translate(-168.889682, -168.889682) translate(6.389682, 6.389682)">
            <circle id="Oval" stroke="#FFFFFF" stroke-width="12" fill-opacity="0" fill="#D8D8D8" cx="162.5" cy="162.5" r="162.5"></circle>
            <polygon id="Path-2" fill="url(#linearGradient-1)" transform="translate(244.413566, 223.758693) rotate(-12.000000) translate(-244.413566, -223.758693) " points="215.349834 258.547879 182.344742 278.021279 206.430679 283.163902 221.935029 282.710296 248.687218 273.574887 267.248132 263.263269 287.246343 250.166722 299.770608 239.707417 306.48239 225.553336 306.08153 214.268575 301.722168 199.985269 297.307423 188.399862 287.9373 164.353483 270.53941 180.456487 279.231762 206.035103 280.10469 215.502804 265.605129 226.236382"></polygon>
            <polygon id="Path-3" fill="url(#linearGradient-2)" transform="translate(202.578374, 215.912990) rotate(-11.000000) translate(-202.578374, -215.912990) " points="115.836826 249.267517 140.371094 252.023435 163.533997 245.625485 180.193458 231.888088 194.764224 210.861352 201.489193 191.493442 218.781593 191.229718 242.134376 186.720033 257.401374 175.160998 270.392431 158.221989 274.933763 144.547886 279.256204 150.199497 289.319922 175.757015 252.62269 212.293375 233.6952 236.060206 214.630573 265.104159 217.47352 271.82649 185.02225 287.278095 175.348844 285.548064 160.593471 280.76938 146.426203 273.516963 133.081756 265.900606 119.080635 255.905457"></polygon>
            <path d="M74.5072997,246.800779 L62.0145561,194.001807 L81.5502729,156.354569 L115.902048,138.942572 L144.679529,140.364473 C144.679529,140.364473 165.295682,152.967175 165.471214,150.195294 C165.646745,147.423413 156.255477,121.890749 156.255477,121.890749 L167.287919,91.2328265 L187.249012,74.4067942 L216.637207,74.92173 L198.810711,47.0397225 L172.500012,35.7511039 L159.111541,34.6305863 L117.811229,51.5004356 L79.6049153,77.5513562 L39.273488,120.787287 L17.3307227,153.964055 L11.9112694,169.295035 L11.3588361,180.384357 L15.4525471,190.601321 L22.3895654,203.204089 L34.143409,218.018526 L74.5072997,246.800779 Z" id="Path" fill="url(#linearGradient-3)"></path>
            <g id="HeadOutline">
                <use fill="black" fill-opacity="1" filter="url(#filter-5)" xlink:href="#path-4"></use>
                <use stroke="#E9E1E1" stroke-width="6" fill-opacity="0" fill="#E8DFDF" fill-rule="evenodd" xlink:href="#path-4"></use>
            </g>
            <path d="M261.688267,181.173691 C261.688267,181.173691 265.992116,185.561795 270.372078,194.580533 C274.752039,203.59927 276.562689,212.039645 276.562689,212.039645 C276.562689,212.039645 272.84995,217.194718 270.372078,219.201534 C267.432235,221.582497 261.688267,227.460959 261.688267,227.460959 L224.278479,268.14164 L220.475532,265.00211 C220.475532,265.00211 224.449653,251.685414 232.655572,233.53715 C234.109018,230.322701 243.803931,208.49245 245.162727,205.966837 C251.116482,194.900513 261.688267,181.173691 261.688267,181.173691 Z" id="MouthOutline" stroke="#E9E0E0" stroke-width="6" fill-opacity="0" fill="#24580C"></path>
            <circle id="RightOuterEye" stroke="#6CDD45" stroke-width="9" fill-opacity="0" fill="#FFFFFF" cx="211.476602" cy="124.629312" r="53"></circle>
            <ellipse id="LeftOuterEye" stroke="#6CDD45" stroke-width="9" fill-opacity="0" fill="#FFFFFF" cx="127.475532" cy="205.173691" rx="63" ry="64"></ellipse>
        </g>
    </g>
</svg>