<?xml version="1.0" encoding="UTF-8" standalone="no"?>
<svg width="31px" height="31px" viewBox="0 0 31 31" version="1.1" xmlns="http://www.w3.org/2000/svg" xmlns:xlink="http://www.w3.org/1999/xlink" xmlns:sketch="http://www.bohemiancoding.com/sketch/ns">
    <!-- Generator: Sketch 3.4.4 (17249) - http://www.bohemiancoding.com/sketch -->
    <title>WrongIcon</title>
    <desc>Created with Sketch.</desc>
    <defs></defs>
    <g id="Page-1" stroke="none" stroke-width="1" fill="none" fill-rule="evenodd" sketch:type="MSPage">
        <g id="WrongIcon" sketch:type="MSLayerGroup" transform="translate(1.000000, 1.000000)" stroke="#F73500">
            <ellipse id="Oval-18" sketch:type="MSShapeGroup" cx="14.5" cy="14.5" rx="14.5" ry="14.5"></ellipse>
            <path d="M13.7671746,14.7328254 L9.35355339,10.0606602 L14.2287955,14.2712045 L14.2287955,14.2712045 L9.35355339,10.0606602 L9,9.70710678 L9.70710678,9 L10.0606602,9.35355339 L14.4742814,14.0257186 L14.5,14 L15.2071068,14.7071068 L15.1642136,14.75 L15.4142134,14.9999998 L14.7071066,15.7071066 L14.4571068,15.4571068 L10.2071067,19.7071068 L9.8535533,20.0606602 L9.14644651,19.3535534 L9.4999999,19 L13.7671746,14.7328254 Z M14.9876328,14.9265807 L18.2071068,17.7071068 L14.9876328,14.9265807 L14.9876328,14.9265807 Z" id="Line" stroke-linecap="square" sketch:type="MSShapeGroup"></path>
            <path d="M15.7671746,14.7328254 L11.3535534,10.0606602 L16.2287955,14.2712045 L16.2287955,14.2712045 L11.3535534,10.0606602 L11,9.70710678 L11.7071068,9 L12.0606602,9.35355339 L16.4742814,14.0257186 L16.5,14 L17.2071068,14.7071068 L17.1642136,14.75 L17.4142134,14.9999998 L16.7071066,15.7071066 L16.4571068,15.4571068 L12.2071067,19.7071068 L11.8535533,20.0606602 L11.1464465,19.3535534 L11.4999999,19 L15.7671746,14.7328254 Z M16.9876328,14.9265807 L20.2071068,17.7071068 L16.9876328,14.9265807 L16.9876328,14.9265807 Z" id="Line" stroke-linecap="square" sketch:type="MSShapeGroup" transform="translate(15.603553, 14.530330) scale(-1, 1) translate(-15.603553, -14.530330) "></path>
        </g>
    </g>
</svg>